<svg xmlns="http://www.w3.org/2000/svg" width="30" height="30" viewBox="0 0 30 30" fill="none">
    <path d="M14.9968 0V3.18336C16.1235 3.18336 17.2183 3.34253 18.2495 3.64177L3.64099 18.2598C3.34182 17.222 3.18269 16.1333 3.18269 15H0C0 23.2704 6.7282 30 14.9968 30V26.8166C13.8574 26.8166 12.7562 26.6575 11.7123 26.3519L26.3463 11.7211C26.6582 12.7589 26.8173 13.8604 26.8173 15H30C30 6.72963 23.2718 0 14.9968 0ZM8.62508 24.9448C7.1865 24.0216 5.96435 22.7929 5.04137 21.354L21.3495 5.04244C22.7944 5.96562 24.0165 7.18803 24.9395 8.62054L8.62508 24.9448Z" fill="#8880D0"/>
</svg>