<svg width="1920" height="695" viewBox="0 0 1920 695" fill="none" xmlns="http://www.w3.org/2000/svg">
<path d="M344.427 0.547852V74.141C370.303 74.141 395.448 77.8207 419.131 84.7384L83.6215 422.678C76.7505 398.687 73.0957 373.518 73.0957 347.319H0C0 538.514 154.524 694.09 344.427 694.09V620.497C318.259 620.497 292.968 616.817 268.992 609.752L605.086 271.518C612.249 295.509 615.904 320.972 615.904 347.319H689C689 156.124 534.476 0.547852 344.427 0.547852ZM198.089 577.224C165.05 555.882 136.981 527.475 115.784 494.211L490.326 117.119C523.511 138.461 551.58 166.721 572.778 199.838L198.089 577.224Z" fill="white" fill-opacity="0.03"/>
<path d="M959.927 0.547852V74.141C985.765 74.141 1010.87 77.8207 1034.52 84.7384L699.5 422.678C692.639 398.687 688.99 373.518 688.99 347.319H616C616 538.514 770.3 694.09 959.927 694.09V620.497C933.797 620.497 908.542 616.817 884.602 609.752L1220.21 271.518C1227.36 295.509 1231.01 320.972 1231.01 347.319H1304C1304 156.124 1149.7 0.547852 959.927 0.547852ZM813.802 577.224C780.811 555.882 752.783 527.475 731.616 494.211L1105.61 117.119C1138.75 138.461 1166.78 166.721 1187.95 199.838L813.802 577.224Z" fill="white" fill-opacity="0.03"/>
<path d="M1575.43 0.547852V74.141C1601.3 74.141 1626.45 77.8207 1650.13 84.7384L1314.62 422.678C1307.75 398.687 1304.1 373.518 1304.1 347.319H1231C1231 538.514 1385.52 694.09 1575.43 694.09V620.497C1549.26 620.497 1523.97 616.817 1499.99 609.752L1836.09 271.518C1843.25 295.509 1846.9 320.972 1846.9 347.319H1920C1920 156.124 1765.48 0.547852 1575.43 0.547852ZM1429.09 577.224C1396.05 555.882 1367.98 527.475 1346.78 494.211L1721.33 117.119C1754.51 138.461 1782.58 166.721 1803.78 199.838L1429.09 577.224Z" fill="white" fill-opacity="0.03"/>
</svg>
